<svg xmlns="http://www.w3.org/2000/svg" viewBox="0 0 22 22">
  <defs>
    <radialGradient id="glow" cx="50%" cy="35%" r="45%">
      <stop offset="0%" stop-color="#ffd166" stop-opacity="0.6"/>
      <stop offset="100%" stop-color="#ffd166" stop-opacity="0"/>
    </radialGradient>
    <style>.s{fill:currentColor;fill-opacity:1}</style>
  </defs>
  <circle cx="11" cy="9" r="7" fill="url(#glow)"/>
  <path class="s" d="M11 3C8.24 3 6 5.24 6 8c0 1.77.93 3.32 2.33 4.2.37.23.67.7.67 1.13V14h4v-.67c0-.43.3-.9.67-1.13C15.07 11.32 16 9.77 16 8c0-2.76-2.24-5-5-5zm0 1c2.21 0 4 1.79 4 4 0 1.42-.75 2.66-1.87 3.37-.43.27-.8.77-.96 1.3H9.83c-.16-.53-.53-1.03-.96-1.3C7.75 10.66 7 9.42 7 8c0-2.21 1.79-4 4-4z"/>
  <rect class="s" x="9" y="15" width="4" height="1" rx="0.5"/>
  <rect class="s" x="9.5" y="17" width="3" height="1" rx="0.5"/>
</svg>
